<?xml version="1.0" encoding="utf-8"?>
<!-- Generator: Adobe Illustrator 24.2.1, SVG Export Plug-In . SVG Version: 6.00 Build 0)  -->
<svg version="1.1" id="Layer_1" xmlns="http://www.w3.org/2000/svg" xmlns:xlink="http://www.w3.org/1999/xlink" x="0px" y="0px"
	 viewBox="0 0 269 72" style="enable-background:new 0 0 269 72;" xml:space="preserve">
<style type="text/css">
	.st0{enable-background:new    ;}
	.st1{fill:#FFFFFF;}
	.st2{fill:#FCE559;}
</style>
<g class="st0">
	<path class="st1" d="M208,29.8h-4.5v-1.2h10.5v1.2h-4.5v11.8H208V29.8z"/>
</g>
<g class="st0">
	<path class="st1" d="M226.1,31.8v9.7h-1.3v-1.8c-0.3,0.6-0.8,1.1-1.4,1.4c-0.6,0.3-1.3,0.5-2.1,0.5c-1.3,0-2.3-0.4-3-1.1
		c-0.7-0.7-1.1-1.7-1.1-3.1v-5.6h1.3v5.5c0,1,0.3,1.8,0.8,2.3c0.5,0.5,1.2,0.8,2.2,0.8c1,0,1.8-0.3,2.4-0.9c0.6-0.6,0.9-1.5,0.9-2.6
		v-5.1H226.1z"/>
</g>
<g class="st0">
	<path class="st1" d="M235.9,35.5l-2.6,2.7v3.4h-1.4V28.6h1.4v7.8l7.6-7.8h1.6l-5.6,5.9l6,7.1h-1.6L235.9,35.5z"/>
</g>
<g class="st0">
	<path class="st1" d="M246.6,41.3c-0.7-0.2-1.3-0.5-1.7-0.9l0.6-1c0.4,0.3,0.9,0.6,1.5,0.8c0.6,0.2,1.3,0.3,1.9,0.3
		c0.9,0,1.5-0.1,2-0.4c0.4-0.3,0.6-0.7,0.6-1.2c0-0.4-0.1-0.6-0.4-0.8s-0.5-0.4-0.9-0.5c-0.4-0.1-0.8-0.2-1.4-0.3
		c-0.8-0.1-1.4-0.3-1.9-0.5c-0.5-0.2-0.9-0.4-1.2-0.8c-0.3-0.4-0.5-0.9-0.5-1.5c0-0.8,0.3-1.5,1-2c0.7-0.5,1.6-0.8,2.8-0.8
		c0.6,0,1.3,0.1,1.9,0.2c0.6,0.2,1.1,0.4,1.6,0.7l-0.6,1.1c-0.8-0.6-1.8-0.8-2.9-0.8c-0.8,0-1.5,0.1-1.9,0.4
		c-0.4,0.3-0.6,0.7-0.6,1.2c0,0.4,0.1,0.7,0.4,0.9s0.5,0.4,0.9,0.5c0.4,0.1,0.8,0.2,1.5,0.3c0.8,0.1,1.4,0.3,1.9,0.4
		c0.5,0.1,0.9,0.4,1.2,0.8c0.3,0.4,0.5,0.9,0.5,1.5c0,0.8-0.4,1.5-1.1,2c-0.7,0.5-1.7,0.7-2.9,0.7C248.1,41.6,247.3,41.5,246.6,41.3
		z"/>
	<path class="st1" d="M263.5,32.7c0.7,0.6,1,1.6,1,2.8v6h-1.3V40c-0.3,0.5-0.7,0.9-1.3,1.2c-0.6,0.3-1.3,0.4-2,0.4
		c-1.1,0-1.9-0.3-2.6-0.8s-1-1.2-1-2.1c0-0.8,0.3-1.5,0.9-2c0.6-0.5,1.5-0.8,2.9-0.8h3.1v-0.6c0-0.8-0.2-1.5-0.7-1.9
		c-0.5-0.4-1.2-0.7-2.1-0.7c-0.6,0-1.2,0.1-1.8,0.3c-0.6,0.2-1.1,0.5-1.5,0.8l-0.6-1c0.5-0.4,1.1-0.7,1.8-1c0.7-0.2,1.4-0.3,2.2-0.3
		C261.8,31.7,262.8,32.1,263.5,32.7z M262,40.1c0.5-0.3,0.9-0.8,1.2-1.5V37h-3c-1.7,0-2.5,0.6-2.5,1.7c0,0.6,0.2,1,0.6,1.3
		c0.4,0.3,1,0.5,1.8,0.5C260.8,40.6,261.5,40.4,262,40.1z"/>
</g>
<g class="st0">
	<path class="st1" d="M62,30.3h2.1v11.3H62V30.3z"/>
	<path class="st1" d="M78.8,30.3v11.3h-1.7l-6.2-7.6v7.6h-2.1V30.3h1.7l6.2,7.6v-7.6H78.8z"/>
	<path class="st1" d="M93.8,41.5l0-7.5l-3.7,6.2h-0.9l-3.7-6.1v7.4h-2V30.3h1.7l4.5,7.5l4.4-7.5h1.7l0,11.3H93.8z"/>
	<path class="st1" d="M102.6,41c-0.9-0.5-1.6-1.2-2.2-2.1c-0.5-0.9-0.8-1.9-0.8-3c0-1.1,0.3-2.1,0.8-3c0.5-0.9,1.3-1.6,2.2-2.1
		c0.9-0.5,2-0.7,3.1-0.7s2.2,0.3,3.1,0.7c0.9,0.5,1.6,1.2,2.2,2.1c0.5,0.9,0.8,1.9,0.8,3s-0.3,2.1-0.8,3c-0.5,0.9-1.3,1.6-2.2,2.1
		c-0.9,0.5-2,0.7-3.1,0.7S103.5,41.5,102.6,41z M107.7,39.4c0.6-0.3,1.1-0.8,1.4-1.4c0.3-0.6,0.5-1.3,0.5-2s-0.2-1.4-0.5-2
		s-0.8-1.1-1.4-1.4s-1.3-0.5-2-0.5s-1.4,0.2-2,0.5c-0.6,0.3-1.1,0.8-1.4,1.4s-0.5,1.3-0.5,2s0.2,1.4,0.5,2c0.3,0.6,0.8,1.1,1.4,1.4
		c0.6,0.3,1.3,0.5,2,0.5S107.1,39.7,107.7,39.4z"/>
	<path class="st1" d="M125.1,36.7c0.4,0.5,0.5,1.1,0.5,1.8c0,1-0.4,1.7-1.1,2.3c-0.8,0.5-1.8,0.8-3.3,0.8h-5.6V30.3h5.3
		c1.3,0,2.4,0.3,3.1,0.8c0.7,0.5,1.1,1.2,1.1,2.2c0,0.6-0.1,1.1-0.4,1.5s-0.6,0.8-1.1,1C124.2,35.9,124.7,36.2,125.1,36.7z
		 M117.7,31.9V35h3c0.7,0,1.3-0.1,1.7-0.4c0.4-0.3,0.6-0.6,0.6-1.2c0-0.5-0.2-0.9-0.6-1.2s-1-0.4-1.7-0.4H117.7z M123.5,38.3
		c0-1.1-0.8-1.6-2.4-1.6h-3.4v3.3h3.4C122.7,39.9,123.5,39.4,123.5,38.3z"/>
	<path class="st1" d="M129.5,30.3h2.1v11.3h-2.1V30.3z"/>
	<path class="st1" d="M136.2,30.3h2.1v9.5h5.9v1.8h-8V30.3z"/>
	<path class="st1" d="M147.5,30.3h2.1v11.3h-2.1V30.3z"/>
	<path class="st1" d="M161.6,38.9h-5.6l-1.1,2.6h-2.2l5.1-11.3h2.1l5.1,11.3h-2.2L161.6,38.9z M160.9,37.3l-2.1-4.9l-2.1,4.9H160.9z
		"/>
	<path class="st1" d="M175.3,41.5l-2.3-3.3c-0.1,0-0.2,0-0.4,0H170v3.3h-2.1V30.3h4.6c1,0,1.8,0.2,2.6,0.5s1.3,0.8,1.7,1.4
		c0.4,0.6,0.6,1.3,0.6,2.1c0,0.8-0.2,1.6-0.6,2.2c-0.4,0.6-1,1.1-1.8,1.4l2.6,3.7H175.3z M174.5,32.6c-0.5-0.4-1.2-0.6-2.1-0.6H170
		v4.5h2.4c0.9,0,1.6-0.2,2.1-0.6s0.7-0.9,0.7-1.7C175.2,33.6,175,33,174.5,32.6z"/>
	<path class="st1" d="M181.3,30.3h2.1v11.3h-2.1V30.3z"/>
	<path class="st1" d="M195.4,38.9h-5.6l-1.1,2.6h-2.2l5.1-11.3h2.1l5.1,11.3h-2.2L195.4,38.9z M194.7,37.3l-2.1-4.9l-2.1,4.9H194.7z
		"/>
</g>
<path class="st1" d="M35.5,44.5h0.2v-1.4L35,42.8v0.4l0.4,0.3L35.5,44.5z M35.5,42.1h0.2v-1.2L35,40.5V41l0.4,0.3L35.5,42.1z
	 M35.5,39.7h0.2v-1.3L35,38.1v0.4l0.4,0.3L35.5,39.7z M26.3,48.4l0.5,0.3v-3.5l-1.6-1v1.2l1.1,0.7V48.4z M26.3,36.1l0.5,0.3v-3.5
	l-1.6-1V33l1.1,0.7V36.1z M26.3,42.4l0.5,0.3v-3.5l-1.6-1v1.1l1.1,0.7V42.4z M30,44l0.5,0.3V41l-1.6-1v0.9l1.1,0.7V44z M30,37.6
	l0.5,0.3v-3.5l-1.6-1v1.1l1.1,0.7V37.6z M34.2,39.1h0.2v-1.3l-0.6-0.4v0.4l0.4,0.3L34.2,39.1z M40.1,24.4l-16.3-9.4
	c-0.2-0.1-0.5-0.2-0.7-0.2c-0.3,0-0.5,0.1-0.7,0.2L6,24.4c-0.5,0.3-0.8,0.8-0.8,1.3v18.7c0,0.5,0.3,1,0.8,1.3l16.2,9.4
	c0.2,0.2,0.5,0.3,0.8,0.3l0,0c0.3,0,0.5-0.1,0.8-0.2L40,45.8c0.5-0.3,0.8-0.8,0.8-1.3V25.7c0-0.5-0.3-1-0.8-1.3H40.1z M31.2,47.5
	L30.5,48v-1.1l-1.6-1V47l1.1,0.7v0.6l-6.6,3.8V28.7l7.8,5L31.2,47.5z M36.8,44.2l-4,2.3V35.1l4,2.6V44.2z M37.9,43.6L37.2,44v-6.6
	l-4.9-3.3v12.5L31.6,47V33.5L23,28l0,0h-0.2l-8.2,5.4v13.8l-1.1-0.6V34.5L9,37.4V44l-0.7-0.4V26.6L23,18.1l14.7,8.5L37.9,43.6z
	 M34,41.5h0.2v-1.3l-0.6-0.4v0.4l0.4,0.3L34,41.5z M34,43.9h0.2v-1.4l-0.6-0.3v0.4l0.4,0.3L34,43.9z M11.8,30.4c0,0-2,0-2.1,1.4
	c0.6-0.7,1.6-0.9,2.4-0.5c0.5-1.3,2-1.9,3.3-1.4C14.2,29.1,12.7,29.3,11.8,30.4z M18.7,27.7c0,0-1.2,0-1.2,0.8
	c0.3-0.4,0.9-0.5,1.4-0.3c0.3-0.7,1.1-1.1,1.8-0.8C20.1,27,19.2,27.2,18.7,27.7z M18.4,24.7c-0.9-0.5-2-0.3-2.7,0.5c0,0-1.5,0-1.6,1
	c0.4-0.6,1.2-0.8,1.8-0.5C16.4,24.8,17.5,24.4,18.4,24.7z"/>
<path class="st2" d="M23,56L0.9,56.3h44.2L23,56z M31.9,33.7l1.2,0.8c1.8-1,2.9-2.9,2.9-5c0.2-3.1-2.3-5.8-5.4-5.9
	c-3-0.2-5.6,2.1-5.9,5.1l7.2,4.6V33.7z"/>
</svg>
