<svg id="Layer_1" data-name="Layer 1" xmlns="http://www.w3.org/2000/svg" viewBox="0 0 81.11 12.57"><defs><style>.cls-1{font-size:5.61px;font-family:Montserrat-Regular, Montserrat;letter-spacing:0.09em;}.cls-1,.cls-4,.cls-5{fill:#fff;}.cls-2{letter-spacing:0.1em;}.cls-3{letter-spacing:0.08em;}.cls-4{font-size:4.89px;font-family:Montserrat-SemiBold, Montserrat;font-weight:600;letter-spacing:0.1em;}.cls-6{fill:#fce559;}</style></defs><text class="cls-1" transform="translate(61.45 8.09)">T<tspan class="cls-2" x="3.7" y="0">u</tspan><tspan class="cls-3" x="8.04" y="0">K</tspan><tspan class="cls-2" x="12.48" y="0">sa</tspan></text><text class="cls-4" transform="translate(18.1 8.09)">INMOBILIARIA</text><path class="cls-5" d="M22.78,10.7l.06,0v-.41l-.19-.12v.13l.13.08Zm0-.72.06,0V9.61l-.19-.12v.13l.13.08Zm0-.75.06,0V8.85l-.19-.11v.12l.13.08ZM20,11.89l.15.09V10.93l-.48-.29V11l.33.21Zm0-3.75.15.09V7.18l-.48-.29v.32l.33.21Zm0,1.93.15.09V9.11l-.48-.3v.33l.33.2Zm1.12.46.15.09v-1l-.48-.29V9.6l.33.2Zm0-1.92.15.09V7.64l-.48-.29v.33l.33.2Zm1.27.44.06,0V8.67l-.19-.11v.12l.13.08Zm1.79-4.44L19.22,1.77A.46.46,0,0,0,19,1.71a.43.43,0,0,0-.22.06L13.85,4.61a.45.45,0,0,0-.23.39v5.68a.45.45,0,0,0,.23.39l4.92,2.84A.43.43,0,0,0,19,14h0a.46.46,0,0,0,.23-.06l4.91-2.84a.45.45,0,0,0,.23-.39V5A.45.45,0,0,0,24.13,4.61Zm-2.69,7-.22.14v-.33l-.48-.29v.33l.33.2v.17l-2,1.16V5.9l2.38,1.53Zm1.68-1-1.22.71V7.84l1.22.78Zm.34-.19-.21.12v-2l-1.48-1v3.8l-.2.11V7.36L19,5.7h0l-.06,0L16.45,7.33v4.2l-.33-.19V7.66l-1.37.88v2l-.22-.13V5.27L19,2.69l4.47,2.58ZM22.34,9.8l.06,0V9.42l-.19-.11v.13l.13.08Zm0,.71.06,0v-.41L22.21,10v.13l.13.08ZM15.6,6.41s-.61,0-.63.41a.58.58,0,0,1,.72-.16.79.79,0,0,1,1-.44A.86.86,0,0,0,15.6,6.41Zm2.1-.8s-.35,0-.36.23a.34.34,0,0,1,.42-.09.44.44,0,0,1,.55-.25A.5.5,0,0,0,17.7,5.61Zm-.1-.91a.67.67,0,0,0-.81.15s-.47,0-.48.31A.44.44,0,0,1,16.86,5,.6.6,0,0,1,17.6,4.7Z" transform="translate(-12.28 -1.71)"/><path class="cls-6" d="M19,14.18l-6.71.11H25.7ZM21.7,7.41l.36.23a1.74,1.74,0,0,0,.88-1.51,1.72,1.72,0,0,0-3.43-.25L21.7,7.29Z" transform="translate(-12.28 -1.71)"/></svg>