<?xml version="1.0" encoding="utf-8"?>
<!-- Generator: Adobe Illustrator 24.2.1, SVG Export Plug-In . SVG Version: 6.00 Build 0)  -->
<svg version="1.1" id="Layer_1" xmlns="http://www.w3.org/2000/svg" xmlns:xlink="http://www.w3.org/1999/xlink" x="0px" y="0px"
	 viewBox="0 0 16 16" style="enable-background:new 0 0 16 16;" xml:space="preserve">
<style type="text/css">
	.st0{fill:#FFFFFF;}
	.st1{fill:#FCE559;}
</style>
<g id="Layer_2_1_">
	<g id="Layer_3">
	</g>
	<path class="st0" d="M12.6,11.2L12.6,11.2l0.1-0.4l-0.2-0.1v0.1l0.2,0.1L12.6,11.2L12.6,11.2z M12.6,10.4L12.6,10.4l0.1-0.4
		l-0.2-0.1V10l0.2,0.1L12.6,10.4L12.6,10.4z M12.6,9.5L12.6,9.5l0.1-0.4L12.5,9v0.1l0.2,0.1L12.6,9.5L12.6,9.5z M9.3,12.6l0.2,0.1
		v-1.2l-0.6-0.3v0.4l0.4,0.2C9.3,11.8,9.3,12.6,9.3,12.6z M9.3,8.3l0.2,0.1V7.2L8.9,6.8v0.4l0.4,0.2C9.3,7.4,9.3,8.3,9.3,8.3z
		 M9.3,10.5l0.2,0.1V9.4L8.9,9.1v0.4l0.4,0.2C9.3,9.7,9.3,10.5,9.3,10.5z M10.6,11.1l0.2,0.1V9.9l-0.6-0.3V10l0.4,0.2
		C10.6,10.2,10.6,11.1,10.6,11.1z M10.6,8.8l0.2,0.1V7.7l-0.6-0.3v0.4L10.6,8V8.8z M12.1,9.3L12.1,9.3l0.1-0.4L12,8.8v0.1L12.1,9
		V9.3L12.1,9.3z M14.2,4.2L8.5,0.9c-0.1,0-0.2-0.1-0.3-0.1C8.1,0.8,8,0.9,8,0.9L2.2,4.2C2.1,4.3,2,4.5,2,4.6v6.6
		c0,0.2,0.1,0.4,0.3,0.5L8,15c0,0,0.1,0,0.2,0l0,0c0.1,0,0.2,0,0.3-0.1l5.7-3.3c0.2-0.1,0.3-0.3,0.3-0.5V4.6
		C14.4,4.5,14.3,4.3,14.2,4.2z M11.1,12.3l-0.3,0.2v-0.4l-0.6-0.3v0.4l0.4,0.2v0.2l-2.3,1.3V5.7l2.8,1.8L11.1,12.3L11.1,12.3z
		 M13,11.1L11.6,12V8L13,8.8V11.1z M13.4,10.9L13.2,11V8.8l-1.7-1.1v4.4l-0.2,0.1V7.4l-3-1.9l0,0l0,0H8.2L5.3,7.3v4.9L4.9,12V7.7
		l-1.6,1V11L3,10.9v-6l5.2-3l5.2,3V10.9L13.4,10.9z M12.1,10.2L12.1,10.2l0.1-0.4L12,9.6v0.1l0.2,0.1L12.1,10.2L12.1,10.2z M12.1,11
		L12.1,11l0.1-0.4L12,10.5v0.1l0.2,0.1L12.1,11L12.1,11z M4.3,6.3c0,0-0.7,0-0.7,0.5c0,0,0.3-0.4,0.8-0.2c0,0,0.3-0.7,1.1-0.5
		C5.5,6.1,4.8,5.7,4.3,6.3z M6.7,5.3c0,0-0.4,0-0.4,0.3c0,0,0.2-0.2,0.5-0.1c0,0,0.2-0.4,0.6-0.3C7.4,5.2,7,5,6.7,5.3z M6.6,4.3
		c0,0-0.5-0.3-0.9,0.2c0,0-0.5,0-0.6,0.4c0,0,0.2-0.3,0.6-0.1C5.7,4.7,6,4.1,6.6,4.3z"/>
	<path class="st1" d="M8.2,15.3l-7.8,0.1H16L8.2,15.3z M11.3,7.4l0.4,0.3c0.6-0.3,1-1,1-1.7c0-1.1-0.9-2-2-2c-1,0-1.8,0.7-2,1.7
		l2.5,1.6L11.3,7.4L11.3,7.4z"/>
</g>
</svg>
